<svg width="565" height="180" viewBox="0 0 565 180" fill="none" xmlns="http://www.w3.org/2000/svg">
<path d="M122.908 142.988L99.8663 120.855C98.4241 119.47 98.4033 117.176 99.8202 115.765L119.418 96.2477C121.674 94.0002 120.076 90.1575 116.885 90.1575H7.38243C4.18906 90.1575 2.59163 94.0041 4.85216 96.2504L87.4845 178.362C88.8839 179.753 91.1499 179.752 92.5478 178.359L122.954 148.078C124.371 146.667 124.35 144.373 122.908 142.988Z" fill="#252525"/>
<path d="M1.09621 36.7879L24.1376 59.1467C25.5798 60.5462 25.6006 62.8636 24.1837 64.289L4.58623 84.0051C2.32952 86.2755 3.9278 90.1575 7.11927 90.1575H116.621C119.815 90.1575 121.412 86.2716 119.152 84.0023L36.5195 1.05271C35.1201 -0.352082 32.854 -0.350833 31.4562 1.0555L1.05009 31.6456C-0.366761 33.071 -0.345977 35.3884 1.09621 36.7879Z" fill="#00C17C"/>
<path d="M163.486 85.9998V39.7998H186.058C191.866 39.7998 196.222 40.8998 199.126 43.0998C202.074 45.2998 203.548 48.2038 203.548 51.8118C203.548 54.2318 202.954 56.3438 201.766 58.1478C200.578 59.9078 198.95 61.2718 196.882 62.2398C194.814 63.2078 192.438 63.6918 189.754 63.6918L191.008 60.9858C193.912 60.9858 196.486 61.4698 198.73 62.4378C200.974 63.3618 202.712 64.7478 203.944 66.5958C205.22 68.4438 205.858 70.7098 205.858 73.3938C205.858 77.3538 204.296 80.4558 201.172 82.6998C198.048 84.8998 193.45 85.9998 187.378 85.9998H163.486ZM174.112 77.9478H186.586C189.358 77.9478 191.448 77.5078 192.856 76.6278C194.308 75.7038 195.034 74.2518 195.034 72.2718C195.034 70.3358 194.308 68.9058 192.856 67.9818C191.448 67.0138 189.358 66.5298 186.586 66.5298H173.32V58.7418H184.738C187.334 58.7418 189.314 58.3018 190.678 57.4218C192.086 56.4978 192.79 55.1118 192.79 53.2638C192.79 51.4598 192.086 50.1178 190.678 49.2378C189.314 48.3138 187.334 47.8518 184.738 47.8518H174.112V77.9478ZM230.123 86.5278C226.339 86.5278 222.973 85.7358 220.025 84.1518C217.121 82.5678 214.811 80.4118 213.095 77.6838C211.423 74.9118 210.587 71.7658 210.587 68.2458C210.587 64.6818 211.423 61.5358 213.095 58.8078C214.811 56.0358 217.121 53.8798 220.025 52.3398C222.973 50.7558 226.339 49.9638 230.123 49.9638C233.863 49.9638 237.207 50.7558 240.155 52.3398C243.103 53.8798 245.413 56.0138 247.085 58.7418C248.757 61.4698 249.593 64.6378 249.593 68.2458C249.593 71.7658 248.757 74.9118 247.085 77.6838C245.413 80.4118 243.103 82.5678 240.155 84.1518C237.207 85.7358 233.863 86.5278 230.123 86.5278ZM230.123 78.0798C231.839 78.0798 233.379 77.6838 234.743 76.8918C236.107 76.0998 237.185 74.9778 237.977 73.5258C238.769 72.0298 239.165 70.2698 239.165 68.2458C239.165 66.1778 238.769 64.4178 237.977 62.9658C237.185 61.5138 236.107 60.3918 234.743 59.5998C233.379 58.8078 231.839 58.4118 230.123 58.4118C228.407 58.4118 226.867 58.8078 225.503 59.5998C224.139 60.3918 223.039 61.5138 222.203 62.9658C221.411 64.4178 221.015 66.1778 221.015 68.2458C221.015 70.2698 221.411 72.0298 222.203 73.5258C223.039 74.9778 224.139 76.0998 225.503 76.8918C226.867 77.6838 228.407 78.0798 230.123 78.0798ZM273.371 86.5278C269.587 86.5278 266.221 85.7358 263.273 84.1518C260.369 82.5678 258.059 80.4118 256.343 77.6838C254.671 74.9118 253.835 71.7658 253.835 68.2458C253.835 64.6818 254.671 61.5358 256.343 58.8078C258.059 56.0358 260.369 53.8798 263.273 52.3398C266.221 50.7558 269.587 49.9638 273.371 49.9638C277.111 49.9638 280.455 50.7558 283.403 52.3398C286.351 53.8798 288.661 56.0138 290.333 58.7418C292.005 61.4698 292.841 64.6378 292.841 68.2458C292.841 71.7658 292.005 74.9118 290.333 77.6838C288.661 80.4118 286.351 82.5678 283.403 84.1518C280.455 85.7358 277.111 86.5278 273.371 86.5278ZM273.371 78.0798C275.087 78.0798 276.627 77.6838 277.991 76.8918C279.355 76.0998 280.433 74.9778 281.225 73.5258C282.017 72.0298 282.413 70.2698 282.413 68.2458C282.413 66.1778 282.017 64.4178 281.225 62.9658C280.433 61.5138 279.355 60.3918 277.991 59.5998C276.627 58.8078 275.087 58.4118 273.371 58.4118C271.655 58.4118 270.115 58.8078 268.751 59.5998C267.387 60.3918 266.287 61.5138 265.451 62.9658C264.659 64.4178 264.263 66.1778 264.263 68.2458C264.263 70.2698 264.659 72.0298 265.451 73.5258C266.287 74.9778 267.387 76.0998 268.751 76.8918C270.115 77.6838 271.655 78.0798 273.371 78.0798ZM345.197 49.9638C348.013 49.9638 350.499 50.5358 352.655 51.6798C354.855 52.7798 356.571 54.4958 357.803 56.8278C359.079 59.1158 359.717 62.0638 359.717 65.6718V85.9998H349.421V67.2558C349.421 64.3958 348.827 62.2838 347.639 60.9198C346.451 59.5558 344.779 58.8738 342.623 58.8738C341.127 58.8738 339.785 59.2258 338.597 59.9298C337.409 60.5898 336.485 61.6018 335.825 62.9658C335.165 64.3298 334.835 66.0678 334.835 68.1798V85.9998H324.539V67.2558C324.539 64.3958 323.945 62.2838 322.757 60.9198C321.613 59.5558 319.963 58.8738 317.807 58.8738C316.311 58.8738 314.969 59.2258 313.781 59.9298C312.593 60.5898 311.669 61.6018 311.009 62.9658C310.349 64.3298 310.019 66.0678 310.019 68.1798V85.9998H299.723V50.4918H309.557V60.1938L307.709 57.3558C308.941 54.9358 310.679 53.1098 312.923 51.8778C315.211 50.6018 317.807 49.9638 320.711 49.9638C323.967 49.9638 326.805 50.7998 329.225 52.4718C331.689 54.0998 333.317 56.6078 334.109 59.9958L330.479 59.0058C331.667 56.2338 333.559 54.0338 336.155 52.4058C338.795 50.7778 341.809 49.9638 345.197 49.9638ZM386.825 86.5278C382.777 86.5278 379.213 85.7358 376.133 84.1518C373.097 82.5678 370.743 80.4118 369.071 77.6838C367.399 74.9118 366.563 71.7658 366.563 68.2458C366.563 64.6818 367.377 61.5358 369.005 58.8078C370.677 56.0358 372.943 53.8798 375.803 52.3398C378.663 50.7558 381.897 49.9638 385.505 49.9638C388.981 49.9638 392.105 50.7118 394.877 52.2078C397.693 53.6598 399.915 55.7718 401.543 58.5438C403.171 61.2718 403.985 64.5498 403.985 68.3778C403.985 68.7738 403.963 69.2358 403.919 69.7638C403.875 70.2478 403.831 70.7098 403.787 71.1498H374.945V65.1438H398.375L394.415 66.9258C394.415 65.0778 394.041 63.4718 393.293 62.1078C392.545 60.7438 391.511 59.6878 390.191 58.9398C388.871 58.1478 387.331 57.7518 385.571 57.7518C383.811 57.7518 382.249 58.1478 380.885 58.9398C379.565 59.6878 378.531 60.7658 377.783 62.1738C377.035 63.5378 376.661 65.1658 376.661 67.0578V68.6418C376.661 70.5778 377.079 72.2938 377.915 73.7898C378.795 75.2418 380.005 76.3638 381.545 77.1558C383.129 77.9038 384.977 78.2778 387.089 78.2778C388.981 78.2778 390.631 77.9918 392.039 77.4198C393.491 76.8478 394.811 75.9898 395.999 74.8458L401.477 80.7858C399.849 82.6338 397.803 84.0638 395.339 85.0758C392.875 86.0438 390.037 86.5278 386.825 86.5278ZM410.84 85.9998V50.4918H420.674V60.5238L419.288 57.6198C420.344 55.1118 422.038 53.2198 424.37 51.9438C426.702 50.6238 429.54 49.9638 432.884 49.9638V59.4678C432.444 59.4238 432.048 59.4018 431.696 59.4018C431.344 59.3578 430.97 59.3358 430.574 59.3358C427.758 59.3358 425.47 60.1498 423.71 61.7778C421.994 63.3618 421.136 65.8478 421.136 69.2358V85.9998H410.84ZM458.466 85.9998V79.0698L457.806 77.5518V65.1438C457.806 62.9438 457.124 61.2278 455.76 59.9958C454.44 58.7638 452.394 58.1478 449.622 58.1478C447.73 58.1478 445.86 58.4558 444.012 59.0718C442.208 59.6438 440.668 60.4358 439.392 61.4478L435.696 54.2538C437.632 52.8898 439.964 51.8338 442.692 51.0858C445.42 50.3378 448.192 49.9638 451.008 49.9638C456.42 49.9638 460.622 51.2398 463.614 53.7918C466.606 56.3438 468.102 60.3258 468.102 65.7378V85.9998H458.466ZM447.642 86.5278C444.87 86.5278 442.494 86.0658 440.514 85.1418C438.534 84.1738 437.016 82.8758 435.96 81.2478C434.904 79.6198 434.376 77.7938 434.376 75.7698C434.376 73.6578 434.882 71.8098 435.894 70.2258C436.95 68.6418 438.6 67.4098 440.844 66.5298C443.088 65.6058 446.014 65.1438 449.622 65.1438H459.06V71.1498H450.744C448.324 71.1498 446.652 71.5458 445.728 72.3378C444.848 73.1298 444.408 74.1198 444.408 75.3078C444.408 76.6278 444.914 77.6838 445.926 78.4758C446.982 79.2238 448.412 79.5978 450.216 79.5978C451.932 79.5978 453.472 79.2018 454.836 78.4098C456.2 77.5738 457.19 76.3638 457.806 74.7798L459.39 79.5318C458.642 81.8198 457.278 83.5578 455.298 84.7458C453.318 85.9338 450.766 86.5278 447.642 86.5278ZM499.002 49.9638C501.818 49.9638 504.326 50.5358 506.526 51.6798C508.77 52.7798 510.53 54.4958 511.806 56.8278C513.082 59.1158 513.72 62.0638 513.72 65.6718V85.9998H503.424V67.2558C503.424 64.3958 502.786 62.2838 501.51 60.9198C500.278 59.5558 498.518 58.8738 496.23 58.8738C494.602 58.8738 493.128 59.2258 491.808 59.9298C490.532 60.5898 489.52 61.6238 488.772 63.0318C488.068 64.4398 487.716 66.2438 487.716 68.4438V85.9998H477.42V50.4918H487.254V60.3258L485.406 57.3558C486.682 54.9798 488.508 53.1538 490.884 51.8778C493.26 50.6018 495.966 49.9638 499.002 49.9638ZM540.009 99.3318C536.665 99.3318 533.431 98.9138 530.307 98.0778C527.227 97.2858 524.653 96.0758 522.585 94.4478L526.677 87.0558C528.173 88.2878 530.065 89.2558 532.353 89.9598C534.685 90.7078 536.973 91.0818 539.217 91.0818C542.869 91.0818 545.509 90.2678 547.137 88.6398C548.809 87.0118 549.645 84.5918 549.645 81.3798V76.0338L550.305 67.1238L550.173 58.1478V50.4918H559.941V80.0598C559.941 86.6598 558.225 91.5218 554.793 94.6458C551.361 97.7698 546.433 99.3318 540.009 99.3318ZM538.425 84.2838C535.125 84.2838 532.133 83.5798 529.449 82.1718C526.809 80.7198 524.675 78.7178 523.047 76.1658C521.463 73.5698 520.671 70.5558 520.671 67.1238C520.671 63.6478 521.463 60.6338 523.047 58.0818C524.675 55.4858 526.809 53.4838 529.449 52.0758C532.133 50.6678 535.125 49.9638 538.425 49.9638C541.417 49.9638 544.057 50.5798 546.345 51.8118C548.633 52.9998 550.415 54.8698 551.691 57.4218C552.967 59.9298 553.605 63.1638 553.605 67.1238C553.605 71.0398 552.967 74.2738 551.691 76.8258C550.415 79.3338 548.633 81.2038 546.345 82.4358C544.057 83.6678 541.417 84.2838 538.425 84.2838ZM540.471 75.8358C542.275 75.8358 543.881 75.4838 545.289 74.7798C546.697 74.0318 547.797 72.9978 548.589 71.6778C549.381 70.3578 549.777 68.8398 549.777 67.1238C549.777 65.3638 549.381 63.8458 548.589 62.5698C547.797 61.2498 546.697 60.2378 545.289 59.5338C543.881 58.7858 542.275 58.4118 540.471 58.4118C538.667 58.4118 537.061 58.7858 535.653 59.5338C534.245 60.2378 533.123 61.2498 532.287 62.5698C531.495 63.8458 531.099 65.3638 531.099 67.1238C531.099 68.8398 531.495 70.3578 532.287 71.6778C533.123 72.9978 534.245 74.0318 535.653 74.7798C537.061 75.4838 538.667 75.8358 540.471 75.8358ZM172.406 146L158.146 113.8H161.826L175.166 144.114H173.142L186.574 113.8H190.024L175.764 146H172.406ZM202.423 146.23C199.909 146.23 197.701 145.708 195.799 144.666C193.898 143.592 192.411 142.136 191.337 140.296C190.264 138.425 189.727 136.294 189.727 133.902C189.727 131.51 190.233 129.394 191.245 127.554C192.288 125.714 193.699 124.272 195.477 123.23C197.287 122.156 199.311 121.62 201.549 121.62C203.819 121.62 205.827 122.141 207.575 123.184C209.354 124.196 210.749 125.637 211.761 127.508C212.773 129.348 213.279 131.479 213.279 133.902C213.279 134.055 213.264 134.224 213.233 134.408C213.233 134.561 213.233 134.73 213.233 134.914H192.211V132.476H211.485L210.197 133.442C210.197 131.694 209.814 130.145 209.047 128.796C208.311 127.416 207.299 126.342 206.011 125.576C204.723 124.809 203.236 124.426 201.549 124.426C199.893 124.426 198.406 124.809 197.087 125.576C195.769 126.342 194.741 127.416 194.005 128.796C193.269 130.176 192.901 131.755 192.901 133.534V134.04C192.901 135.88 193.3 137.505 194.097 138.916C194.925 140.296 196.06 141.384 197.501 142.182C198.973 142.948 200.645 143.332 202.515 143.332C203.987 143.332 205.352 143.071 206.609 142.55C207.897 142.028 209.001 141.231 209.921 140.158L211.761 142.274C210.688 143.562 209.339 144.543 207.713 145.218C206.119 145.892 204.355 146.23 202.423 146.23ZM226.413 146.23C224.42 146.23 222.534 145.954 220.755 145.402C218.976 144.819 217.581 144.098 216.569 143.24L218.041 140.664C219.022 141.4 220.28 142.044 221.813 142.596C223.346 143.117 224.956 143.378 226.643 143.378C228.943 143.378 230.599 143.025 231.611 142.32C232.623 141.584 233.129 140.618 233.129 139.422C233.129 138.532 232.838 137.842 232.255 137.352C231.703 136.83 230.967 136.447 230.047 136.202C229.127 135.926 228.1 135.696 226.965 135.512C225.83 135.328 224.696 135.113 223.561 134.868C222.457 134.622 221.445 134.27 220.525 133.81C219.605 133.319 218.854 132.66 218.271 131.832C217.719 131.004 217.443 129.9 217.443 128.52C217.443 127.201 217.811 126.02 218.547 124.978C219.283 123.935 220.356 123.122 221.767 122.54C223.208 121.926 224.956 121.62 227.011 121.62C228.575 121.62 230.139 121.834 231.703 122.264C233.267 122.662 234.555 123.199 235.567 123.874L234.141 126.496C233.068 125.76 231.918 125.238 230.691 124.932C229.464 124.594 228.238 124.426 227.011 124.426C224.834 124.426 223.224 124.809 222.181 125.576C221.169 126.312 220.663 127.262 220.663 128.428C220.663 129.348 220.939 130.068 221.491 130.59C222.074 131.111 222.825 131.525 223.745 131.832C224.696 132.108 225.723 132.338 226.827 132.522C227.962 132.706 229.081 132.936 230.185 133.212C231.32 133.457 232.347 133.81 233.267 134.27C234.218 134.699 234.969 135.328 235.521 136.156C236.104 136.953 236.395 138.011 236.395 139.33C236.395 140.74 235.996 141.967 235.199 143.01C234.432 144.022 233.298 144.819 231.795 145.402C230.323 145.954 228.529 146.23 226.413 146.23ZM250.024 146.23C247.755 146.23 246.007 145.616 244.78 144.39C243.553 143.163 242.94 141.43 242.94 139.192V116.514H246.206V139.008C246.206 140.418 246.559 141.507 247.264 142.274C248 143.04 249.043 143.424 250.392 143.424C251.833 143.424 253.029 143.01 253.98 142.182L255.13 144.528C254.486 145.11 253.704 145.54 252.784 145.816C251.895 146.092 250.975 146.23 250.024 146.23ZM238.616 124.564V121.85H253.566V124.564H238.616ZM270.48 146.23C267.965 146.23 265.757 145.708 263.856 144.666C261.955 143.592 260.467 142.136 259.394 140.296C258.321 138.425 257.784 136.294 257.784 133.902C257.784 131.51 258.29 129.394 259.302 127.554C260.345 125.714 261.755 124.272 263.534 123.23C265.343 122.156 267.367 121.62 269.606 121.62C271.875 121.62 273.884 122.141 275.632 123.184C277.411 124.196 278.806 125.637 279.818 127.508C280.83 129.348 281.336 131.479 281.336 133.902C281.336 134.055 281.321 134.224 281.29 134.408C281.29 134.561 281.29 134.73 281.29 134.914H260.268V132.476H279.542L278.254 133.442C278.254 131.694 277.871 130.145 277.104 128.796C276.368 127.416 275.356 126.342 274.068 125.576C272.78 124.809 271.293 124.426 269.606 124.426C267.95 124.426 266.463 124.809 265.144 125.576C263.825 126.342 262.798 127.416 262.062 128.796C261.326 130.176 260.958 131.755 260.958 133.534V134.04C260.958 135.88 261.357 137.505 262.154 138.916C262.982 140.296 264.117 141.384 265.558 142.182C267.03 142.948 268.701 143.332 270.572 143.332C272.044 143.332 273.409 143.071 274.666 142.55C275.954 142.028 277.058 141.231 277.978 140.158L279.818 142.274C278.745 143.562 277.395 144.543 275.77 145.218C274.175 145.892 272.412 146.23 270.48 146.23ZM309.867 146.23C307.536 146.23 305.435 145.708 303.565 144.666C301.725 143.592 300.268 142.136 299.195 140.296C298.121 138.425 297.585 136.294 297.585 133.902C297.585 131.479 298.121 129.348 299.195 127.508C300.268 125.668 301.725 124.226 303.565 123.184C305.405 122.141 307.505 121.62 309.867 121.62C312.259 121.62 314.375 122.141 316.215 123.184C318.085 124.226 319.542 125.668 320.585 127.508C321.658 129.348 322.195 131.479 322.195 133.902C322.195 136.294 321.658 138.425 320.585 140.296C319.542 142.136 318.085 143.592 316.215 144.666C314.344 145.708 312.228 146.23 309.867 146.23ZM309.867 143.332C311.615 143.332 313.163 142.948 314.513 142.182C315.862 141.384 316.92 140.28 317.687 138.87C318.484 137.428 318.883 135.772 318.883 133.902C318.883 132 318.484 130.344 317.687 128.934C316.92 127.523 315.862 126.434 314.513 125.668C313.163 124.87 311.63 124.472 309.913 124.472C308.195 124.472 306.662 124.87 305.313 125.668C303.963 126.434 302.89 127.523 302.093 128.934C301.295 130.344 300.897 132 300.897 133.902C300.897 135.772 301.295 137.428 302.093 138.87C302.89 140.28 303.963 141.384 305.313 142.182C306.662 142.948 308.18 143.332 309.867 143.332ZM341.454 146V118.814C341.454 116.667 342.082 114.934 343.34 113.616C344.597 112.297 346.406 111.638 348.768 111.638C349.688 111.638 350.577 111.76 351.436 112.006C352.294 112.251 353.015 112.634 353.598 113.156L352.494 115.594C352.034 115.195 351.497 114.904 350.884 114.72C350.27 114.505 349.611 114.398 348.906 114.398C347.526 114.398 346.468 114.781 345.732 115.548C344.996 116.314 344.628 117.449 344.628 118.952V122.632L344.72 124.15V146H341.454ZM337.13 124.564V121.85H352.08V124.564H337.13ZM366.472 146.23C364.417 146.23 362.623 145.846 361.09 145.08C359.556 144.313 358.36 143.163 357.502 141.63C356.674 140.096 356.26 138.18 356.26 135.88V121.85H359.526V135.512C359.526 138.088 360.154 140.035 361.412 141.354C362.7 142.642 364.494 143.286 366.794 143.286C368.48 143.286 369.937 142.948 371.164 142.274C372.421 141.568 373.372 140.556 374.016 139.238C374.69 137.919 375.028 136.34 375.028 134.5V121.85H378.294V146H375.166V139.376L375.672 140.572C374.905 142.35 373.709 143.746 372.084 144.758C370.489 145.739 368.618 146.23 366.472 146.23ZM395.032 146.23C392.762 146.23 391.014 145.616 389.788 144.39C388.561 143.163 387.948 141.43 387.948 139.192V116.514H391.214V139.008C391.214 140.418 391.566 141.507 392.272 142.274C393.008 143.04 394.05 143.424 395.4 143.424C396.841 143.424 398.037 143.01 398.988 142.182L400.138 144.528C399.494 145.11 398.712 145.54 397.792 145.816C396.902 146.092 395.982 146.23 395.032 146.23ZM383.624 124.564V121.85H398.574V124.564H383.624ZM416.065 146.23C414.011 146.23 412.217 145.846 410.683 145.08C409.15 144.313 407.954 143.163 407.095 141.63C406.267 140.096 405.853 138.18 405.853 135.88V121.85H409.119V135.512C409.119 138.088 409.748 140.035 411.005 141.354C412.293 142.642 414.087 143.286 416.387 143.286C418.074 143.286 419.531 142.948 420.757 142.274C422.015 141.568 422.965 140.556 423.609 139.238C424.284 137.919 424.621 136.34 424.621 134.5V121.85H427.887V146H424.759V139.376L425.265 140.572C424.499 142.35 423.303 143.746 421.677 144.758C420.083 145.739 418.212 146.23 416.065 146.23ZM436.99 146V121.85H440.118V128.428L439.796 127.278C440.47 125.438 441.605 124.042 443.2 123.092C444.794 122.11 446.772 121.62 449.134 121.62V124.794C449.011 124.794 448.888 124.794 448.766 124.794C448.643 124.763 448.52 124.748 448.398 124.748C445.852 124.748 443.859 125.53 442.418 127.094C440.976 128.627 440.256 130.82 440.256 133.672V146H436.99ZM464.712 146.23C462.382 146.23 460.281 145.708 458.41 144.666C456.57 143.592 455.114 142.136 454.04 140.296C452.967 138.425 452.43 136.294 452.43 133.902C452.43 131.479 452.967 129.348 454.04 127.508C455.114 125.668 456.57 124.226 458.41 123.184C460.25 122.141 462.351 121.62 464.712 121.62C467.104 121.62 469.22 122.141 471.06 123.184C472.931 124.226 474.388 125.668 475.43 127.508C476.504 129.348 477.04 131.479 477.04 133.902C477.04 136.294 476.504 138.425 475.43 140.296C474.388 142.136 472.931 143.592 471.06 144.666C469.19 145.708 467.074 146.23 464.712 146.23ZM464.712 143.332C466.46 143.332 468.009 142.948 469.358 142.182C470.708 141.384 471.766 140.28 472.532 138.87C473.33 137.428 473.728 135.772 473.728 133.902C473.728 132 473.33 130.344 472.532 128.934C471.766 127.523 470.708 126.434 469.358 125.668C468.009 124.87 466.476 124.472 464.758 124.472C463.041 124.472 461.508 124.87 460.158 125.668C458.809 126.434 457.736 127.523 456.938 128.934C456.141 130.344 455.742 132 455.742 133.902C455.742 135.772 456.141 137.428 456.938 138.87C457.736 140.28 458.809 141.384 460.158 142.182C461.508 142.948 463.026 143.332 464.712 143.332ZM483.356 146.23C482.682 146.23 482.099 145.984 481.608 145.494C481.148 145.003 480.918 144.405 480.918 143.7C480.918 142.964 481.148 142.366 481.608 141.906C482.099 141.446 482.682 141.216 483.356 141.216C484.031 141.216 484.598 141.446 485.058 141.906C485.549 142.366 485.794 142.964 485.794 143.7C485.794 144.405 485.549 145.003 485.058 145.494C484.598 145.984 484.031 146.23 483.356 146.23Z" fill="#252525"/>
</svg>
