<svg width="41" height="58" viewBox="0 0 41 58" fill="none" xmlns="http://www.w3.org/2000/svg">
<path d="M39.7334 46.2269L32.2843 39.0714C31.8181 38.6236 31.8114 37.8819 32.2694 37.4258L38.6051 31.1161C39.3347 30.3895 38.818 29.1472 37.7862 29.1472H2.38505C1.35266 29.1472 0.836227 30.3908 1.56704 31.117L28.2814 57.663C28.7338 58.1126 29.4664 58.1122 29.9183 57.6622L39.7483 47.8725C40.2064 47.4164 40.1997 46.6747 39.7334 46.2269Z" fill="white"/>
<path d="M0.354469 11.8932L7.80356 19.1217C8.26981 19.5741 8.27653 20.3233 7.81848 20.7841L1.48277 27.1582C0.753189 27.8922 1.2699 29.1472 2.30167 29.1472H37.7028C38.7352 29.1472 39.2517 27.8909 38.5209 27.1573L11.8065 0.340351C11.3541 -0.113806 10.6215 -0.113401 10.1696 0.341255L0.339558 10.2308C-0.118496 10.6916 -0.111778 11.4408 0.354469 11.8932Z" fill="#00C17C"/>
</svg>
